<svg width="688" height="580" viewBox="0 0 688 580" fill="none" xmlns="http://www.w3.org/2000/svg">
<path opacity="0.4" d="M624.23 31.6538C479.455 -37.2389 415.592 151.153 315.762 182.15C216.017 227.497 119.839 174.419 60.4516 219.918C-33.6831 292.038 7.63368 418.207 67.897 471.294C154.318 547.423 307.895 520.023 466.635 437.706C665.517 334.572 751.174 92.061 624.23 31.6538Z" fill="#98C3E8"/>
<path opacity="0.2" d="M143.123 106.744C148.123 119.244 133.123 138.744 111.623 145.244C93.1226 150.837 75.1226 150.244 70.1226 137.244C65.6995 125.744 79.6226 113.244 95.6226 106.744C111.623 100.244 138.123 94.2439 143.123 106.744Z" fill="#98C3E8"/>
<path opacity="0.2" d="M306.623 81.2436C302.732 71.304 316.438 48.1094 333.425 43.0422C348.041 38.6819 361.734 28.4073 365.623 38.7436C369.063 47.8873 358.531 68.5682 345.883 73.6586C333.235 78.749 310.514 91.1832 306.623 81.2436Z" fill="#98C3E8"/>
<path opacity="0.2" d="M295.415 573.459C291.524 563.519 303.438 548.11 320.425 543.042C335.041 538.682 349.237 539.228 353.126 549.565C356.566 558.708 345.531 568.568 332.883 573.659C320.235 578.749 299.306 583.399 295.415 573.459Z" fill="#98C3E8"/>
<path opacity="0.2" d="M471.195 522.794C463.101 503.764 488.901 461.479 524.195 451.794C554.565 443.46 603.604 460.504 611.695 480.294C618.852 497.8 571.975 494.904 545.696 504.637C519.417 514.37 479.29 541.824 471.195 522.794Z" fill="#98C3E8"/>
<mask id="mask0_2075_637" style="mask-type:alpha" maskUnits="userSpaceOnUse" x="20" y="20" width="647" height="491">
<path d="M606.584 33.1881C466.012 -28.8873 409.665 153.723 314.764 186.267C220.316 232.583 126.741 184.328 70.9866 229.66C-17.3899 301.516 25.4834 421.461 84.6288 470.729C169.446 541.383 315.965 510.788 466.012 427.337C654.003 322.783 729.842 87.6177 606.584 33.1881Z" fill="#98C3E8"/>
</mask>
<g mask="url(#mask0_2075_637)">
<rect x="-85.4604" y="-60.3545" width="805.162" height="681.485" fill="url(#paint0_linear_2075_637)"/>
<path d="M16.1313 156.711C89.9588 193.94 172.62 298.148 172.62 347.906C172.62 409.113 42.8438 502.922 -16.6809 556.137L491.278 588.949C473.189 507.97 427.517 327.944 455.31 287.96C491.278 236.218 636.829 248.838 718.439 258.303L740.524 27.9863C700.771 44.6027 611.799 92.3487 563.212 79.7286C518.238 68.047 431.963 17.6799 395.365 -14.291" stroke="white" stroke-opacity="0.2" stroke-width="15"/>
<path d="M206.064 99.9209C226.256 205.088 281.153 397.881 339.206 327.713C411.771 240.004 469.193 126.423 523.459 201.513C566.872 261.584 630.73 380.087 657.232 431.829" stroke="white" stroke-opacity="0.2" stroke-width="15"/>
<path fill-rule="evenodd" clip-rule="evenodd" d="M433.623 161.244C433.623 165.662 430.041 169.244 425.623 169.244C421.204 169.244 417.623 165.662 417.623 161.244C417.623 156.826 421.204 153.244 425.623 153.244C430.041 153.244 433.623 156.826 433.623 161.244ZM102.623 334.244C107.041 334.244 110.623 330.662 110.623 326.244C110.623 321.826 107.041 318.244 102.623 318.244C98.2043 318.244 94.6226 321.826 94.6226 326.244C94.6226 330.662 98.2043 334.244 102.623 334.244ZM276.623 436.244C281.041 436.244 284.623 432.662 284.623 428.244C284.623 423.826 281.041 420.244 276.623 420.244C272.204 420.244 268.623 423.826 268.623 428.244C268.623 432.662 272.204 436.244 276.623 436.244ZM550.623 318.244C555.041 318.244 558.623 314.662 558.623 310.244C558.623 305.826 555.041 302.244 550.623 302.244C546.204 302.244 542.623 305.826 542.623 310.244C542.623 314.662 546.204 318.244 550.623 318.244Z" fill="white" fill-opacity="0.6"/>
<circle cx="72.6226" cy="413.244" r="18" stroke="white" stroke-opacity="0.4" stroke-width="8"/>
<circle cx="652.623" cy="136.244" r="18" stroke="white" stroke-opacity="0.4" stroke-width="8"/>
<circle cx="402.623" cy="369.244" r="18" stroke="white" stroke-opacity="0.4" stroke-width="8"/>
</g>
<defs>
<linearGradient id="paint0_linear_2075_637" x1="375.238" y1="-106.075" x2="337.415" y2="564.75" gradientUnits="userSpaceOnUse">
<stop stop-color="#D1ECFF"/>
<stop offset="1" stop-color="#1070B1"/>
</linearGradient>
</defs>
</svg>
