<svg width="375" height="289" viewBox="0 0 375 289" fill="none" xmlns="http://www.w3.org/2000/svg">
<path d="M117.623 287.243L116.123 282.243L124.123 280.743C127.956 282.743 135.323 287.143 134.123 288.743C133.723 289.543 122.956 288.076 117.623 287.243Z" fill="#D06262"/>
<path d="M77.1226 240.243L81.6226 247.743C81.2892 252.91 80.2226 263.043 78.6226 262.243C77.0226 261.443 71.9559 248.576 69.6226 242.243L77.1226 240.243Z" fill="#D06262"/>
<path d="M50.9508 195.236C45.6214 189.701 40.7787 179.267 39.0236 174.742C44.1513 172.262 55.5468 166.595 60.1068 163.765C64.6668 160.936 73.3152 154.516 77.0694 151.661C79.2595 153.635 85.6323 158.505 93.6034 162.19C114.075 171.856 125.767 184.338 129.808 195.514C133.04 204.456 119.797 217.691 112.273 223.237C107.914 215.829 105.291 212.833 100.123 205.777L101.88 197.581L91.5553 194.514C93.0815 196.549 98.0832 203.253 105.88 213.783C119.95 231.368 124.823 261.415 125.5 274.24C122.875 274.816 116.412 275.879 111.559 275.522C110.986 269.292 103.181 255.454 95.7287 243.202C94.2122 245.016 92.1109 247.184 90.887 247.297C84.6924 245.457 82.7735 237.332 82.5883 233.499L87.27 229.578C86.6285 228.553 86.0279 227.592 85.4783 226.706C77.8149 214.356 57.6125 202.155 50.9508 195.236Z" fill="#1F3F68"/>
<path d="M78.9695 150.482C64.4354 161.694 34.3505 181.801 30.2847 172.534C25.2024 160.951 26.1982 160.859 23.3881 157.603C20.5781 154.347 19.8911 146.878 18.6205 143.983C17.982 142.527 12.8336 136.16 8.71791 128.324C8.71791 128.324 8.59425 128.097 8.3851 127.682C5.46314 121.98 3.15544 115.564 3.53509 109.72C3.8255 101.158 10.3388 95.6348 10.3388 95.6348C14.2206 91.4964 17.8615 90.8016 19.1226 90.913L19.1459 90.9289C22.1808 92.9927 26.6677 96.044 28.2569 95.8978C29.8502 95.7513 32.1226 92.7436 33.6226 91.2436C41.2284 92.0503 43.5512 90.1021 49.4962 90.913C56.8277 91.913 76.6226 102.244 92.1228 74.7435C93.6623 75.1041 97.1331 76.4725 99.6226 76.2436C91.1227 101.244 83.6226 109.025 76.6226 111.475C71.2501 113.355 67.0177 113.879 63.6742 113.845C63.0607 117.107 62.2453 122.468 60.8861 127.935C63.6804 133.05 66.6341 137.749 68.9541 139.855C74.9806 145.326 81.7856 148.346 78.9695 150.482Z" fill="white"/>
<path d="M78.6841 180.133L92.0991 194.967L101.88 197.582L101.296 202.155C103.541 199.27 106.419 192.344 99.968 187.716C93.517 183.087 83.0908 180.732 78.6841 180.133Z" fill="black" fill-opacity="0.2"/>
<path d="M87.2469 229.557L95.5455 243.354L94.1892 244.986C92.9644 242.588 89.7481 240.373 87.0296 238.112C84.8548 236.304 84.3988 233.166 84.4427 231.823L87.2469 229.557Z" fill="black" fill-opacity="0.2"/>
<path d="M48.6893 154.272C34.4917 152.766 17.2259 137.918 10.3677 130.682C26.2264 144.789 44.6545 148.617 50.4919 146.574C55.1618 144.94 58.7419 132.77 60.6227 127.743L64.4213 134.247C65.093 141.549 62.8869 155.778 48.6893 154.272Z" fill="black" fill-opacity="0.2"/>
<path d="M43.5895 126.12C40.4416 126.696 32.296 119.795 28.6408 116.449C42.0958 126.258 42.1226 121.243 59.1226 109.243C58.3843 110.316 51.1226 124.743 43.5895 126.12Z" fill="black" fill-opacity="0.2"/>
<path d="M64.1226 111.743C62.4097 111.399 60.9186 110.819 59.1226 109.243L60.6226 105.743C60.4559 104.91 60.2226 103.043 60.6226 102.243C61.0226 101.443 62.6226 100.576 63.1226 100.243L62.6226 102.743L65.1226 99.7432L69.1226 103.243L68.6226 106.743L65.6226 108.243L64.1226 111.743Z" fill="#F2994A"/>
<path d="M100.623 71.2432L99.6226 76.2432C98.0226 76.6432 93.7892 75.4098 92.1226 74.7432C92.6226 73.2432 94.2226 69.2432 94.6226 67.2432C95.0226 65.2432 98.7892 63.0765 100.623 62.2432H102.623L100.623 65.7432V71.2432Z" fill="#F2994A"/>
<path d="M16.6225 80.7432C17.4225 82.3432 19.6225 85.7432 20.6225 87.2432C21.2892 85.9099 22.2226 82.9432 20.6225 81.7432C19.0225 80.5432 17.6225 78.5766 17.1226 77.7432C17.6226 77.4099 18.9226 76.7432 20.1226 76.7432C19.3226 70.7432 23.4559 68.5766 25.6226 68.2432L34.1226 67.7432L34.6226 70.2432C37.7892 67.2432 43.5226 60.7432 41.1226 58.7432C38.1226 56.2432 29.1226 62.7432 23.1226 62.7432C17.1226 62.7432 14.6225 65.7432 13.1225 68.7432C11.6225 71.7432 15.6225 78.7432 16.6225 80.7432Z" fill="#316099"/>
<path d="M28.1226 96.2432C26.5226 96.2432 21.9559 93.0765 19.1226 91.2432C20.4559 90.5765 21.1226 88.0432 21.1226 87.2432C21.1226 86.2432 22.1226 82.2432 21.1226 81.7432C20.1226 81.2432 17.1226 79.2432 17.1226 78.2432C17.1226 77.4432 19.1226 77.2432 20.1226 77.2432C19.7892 75.5765 19.7226 71.7432 22.1226 69.7432C24.5226 67.7432 31.1226 67.5765 34.1226 67.7432C34.2892 68.4099 34.9226 71.2432 36.1226 77.2432C37.3226 83.2432 34.6226 86.0765 33.1226 86.7432L33.6226 91.2432C32.4559 92.7432 29.7226 96.2432 28.1226 96.2432Z" fill="#F2994A"/>
<path d="M124.123 280.743L123.623 274.743C120.091 275.689 117.994 275.857 114.123 275.743L116.123 282.243L124.123 280.743Z" fill="#98C3E8"/>
<path d="M81.6226 247.743L87.6226 245.743C84.9444 242.666 84.0432 240.911 83.1226 237.743L77.1226 240.243L81.6226 247.743Z" fill="#98C3E8"/>
<rect opacity="0.8" x="108.623" y="0.243164" width="266.284" height="189.301" rx="5" fill="url(#paint0_linear_2075_733)"/>
<path d="M108.623 5.24316C108.623 2.48174 110.861 0.243164 113.623 0.243164H185.605V189.544H113.623C110.861 189.544 108.623 187.306 108.623 184.544V5.24316Z" fill="white"/>
<circle cx="120.623" cy="12.2432" r="4" fill="#FA9595"/>
<circle cx="133.623" cy="12.2432" r="4" fill="#FDF397"/>
<circle cx="145.623" cy="12.2432" r="4" fill="#C1FEBB"/>
<path opacity="0.4" fill-rule="evenodd" clip-rule="evenodd" d="M117.623 106.243H175.623V113.243H117.623V106.243ZM117.623 120.243H175.623V127.243H117.623V120.243ZM156.623 136.243H117.623V143.243H156.623V136.243Z" fill="#5A98D0"/>
<path opacity="0.1" fill-rule="evenodd" clip-rule="evenodd" d="M294.623 25.2432H352.623V32.2432H294.623V25.2432ZM294.623 39.2432H352.623V46.2432H294.623V39.2432ZM333.623 55.2432H294.623V62.2432H333.623V55.2432Z" fill="black"/>
<g filter="url(#filter0_d_2075_733)">
<rect x="100.623" y="26.2432" width="81" height="50" rx="5" fill="#56CCF2"/>
</g>
<path d="M124.967 48.3792C124.311 47.4832 123.383 47.0352 122.167 47.0352C121.063 47.0352 120.135 47.4352 119.351 48.2512C118.567 49.0672 118.183 50.0592 118.183 51.2432C118.183 52.4112 118.567 53.4192 119.351 54.2352C120.135 55.0512 121.063 55.4512 122.167 55.4512C123.383 55.4512 124.311 55.0032 124.967 54.0912V55.2432H126.695V47.2432H124.967V48.3792ZM120.631 53.0832C120.151 52.5872 119.911 51.9792 119.911 51.2432C119.911 50.5072 120.151 49.8992 120.631 49.4192C121.111 48.9232 121.719 48.6832 122.439 48.6832C123.159 48.6832 123.767 48.9232 124.247 49.4192C124.727 49.8992 124.967 50.5072 124.967 51.2432C124.967 51.9792 124.727 52.5872 124.247 53.0832C123.767 53.5632 123.159 53.8032 122.439 53.8032C121.719 53.8032 121.111 53.5632 120.631 53.0832ZM133.701 43.8352C131.333 43.6912 130.085 44.8912 130.085 47.0832V47.2432H128.869V48.9072H130.085V55.2432H131.813V48.9072H133.701V47.2432H131.813V47.0832C131.813 45.9152 132.437 45.3872 133.701 45.4992V43.8352ZM137.24 47.2432H135.512V55.2432H137.24V51.2112C137.24 50.3952 137.48 49.8032 137.976 49.4512C138.472 49.0832 139.048 48.9232 139.704 48.9712V47.0992C138.504 47.0992 137.672 47.5952 137.24 48.5872V47.2432ZM143.413 45.7232C143.861 45.2752 143.861 44.6032 143.429 44.1712C142.997 43.7232 142.293 43.7232 141.861 44.1712C141.429 44.6032 141.429 45.2752 141.861 45.7232C142.309 46.1552 142.981 46.1552 143.413 45.7232ZM143.509 55.2432V47.2432H141.781V55.2432H143.509ZM152.651 48.3792C151.995 47.4832 151.067 47.0352 149.851 47.0352C148.747 47.0352 147.819 47.4352 147.035 48.2512C146.251 49.0672 145.867 50.0592 145.867 51.2432C145.867 52.4112 146.251 53.4192 147.035 54.2352C147.819 55.0512 148.747 55.4512 149.851 55.4512C151.067 55.4512 151.995 55.0032 152.651 54.0912V55.2432H154.379V47.2432H152.651V48.3792ZM148.315 53.0832C147.835 52.5872 147.595 51.9792 147.595 51.2432C147.595 50.5072 147.835 49.8992 148.315 49.4192C148.795 48.9232 149.403 48.6832 150.123 48.6832C150.843 48.6832 151.451 48.9232 151.931 49.4192C152.411 49.8992 152.651 50.5072 152.651 51.2432C152.651 51.9792 152.411 52.5872 151.931 53.0832C151.451 53.5632 150.843 53.8032 150.123 53.8032C149.403 53.8032 148.795 53.5632 148.315 53.0832ZM161.401 47.0352C160.265 47.0352 159.449 47.4512 158.921 48.2672V47.2432H157.193V55.2432H158.921V50.9552C158.921 49.4032 159.737 48.6512 160.953 48.6512C162.057 48.6512 162.745 49.3072 162.745 50.5072V55.2432H164.473V50.3312C164.473 48.2832 163.241 47.0352 161.401 47.0352Z" fill="white"/>
<rect x="202.623" y="18.2432" width="79" height="77" rx="5" fill="#EB5757"/>
<g clip-path="url(#clip0_2075_733)">
<path d="M233.623 43.2432V71.2432L255.623 57.2432L233.623 43.2432Z" fill="white"/>
</g>
<g filter="url(#filter1_d_2075_733)">
<rect x="202.623" y="108.243" width="154" height="63" rx="5" fill="#6FCF97"/>
</g>
<path d="M216.123 153.243C225.623 146.743 229.623 138.243 247.623 138.243C265.623 138.243 267.202 148.243 278.123 148.243C291.123 148.243 303.623 128.743 317.623 128.743C331.623 128.743 335.123 138.743 342.623 139.243" stroke="black" stroke-opacity="0.1" stroke-width="2" stroke-linecap="round" stroke-linejoin="round"/>
<path d="M215.623 153.743C225.123 147.243 227.623 128.243 245.623 128.243C263.623 128.243 267.702 144.743 278.623 144.743C291.623 144.743 303.123 117.743 317.123 117.743C331.123 117.743 335.623 138.743 343.123 139.243" stroke="white" stroke-width="2" stroke-linecap="round" stroke-linejoin="round"/>
<defs>
<filter id="filter0_d_2075_733" x="95.6226" y="21.2432" width="101" height="70" filterUnits="userSpaceOnUse" color-interpolation-filters="sRGB">
<feFlood flood-opacity="0" result="BackgroundImageFix"/>
<feColorMatrix in="SourceAlpha" type="matrix" values="0 0 0 0 0 0 0 0 0 0 0 0 0 0 0 0 0 0 127 0" result="hardAlpha"/>
<feOffset dx="5" dy="5"/>
<feGaussianBlur stdDeviation="5"/>
<feColorMatrix type="matrix" values="0 0 0 0 0.0627451 0 0 0 0 0.439216 0 0 0 0 0.694118 0 0 0 0.2 0"/>
<feBlend mode="normal" in2="BackgroundImageFix" result="effect1_dropShadow_2075_733"/>
<feBlend mode="normal" in="SourceGraphic" in2="effect1_dropShadow_2075_733" result="shape"/>
</filter>
<filter id="filter1_d_2075_733" x="192.623" y="102.243" width="174" height="83" filterUnits="userSpaceOnUse" color-interpolation-filters="sRGB">
<feFlood flood-opacity="0" result="BackgroundImageFix"/>
<feColorMatrix in="SourceAlpha" type="matrix" values="0 0 0 0 0 0 0 0 0 0 0 0 0 0 0 0 0 0 127 0" result="hardAlpha"/>
<feOffset dy="4"/>
<feGaussianBlur stdDeviation="5"/>
<feColorMatrix type="matrix" values="0 0 0 0 0.435294 0 0 0 0 0.811765 0 0 0 0 0.592157 0 0 0 0.2 0"/>
<feBlend mode="normal" in2="BackgroundImageFix" result="effect1_dropShadow_2075_733"/>
<feBlend mode="normal" in="SourceGraphic" in2="effect1_dropShadow_2075_733" result="shape"/>
</filter>
<linearGradient id="paint0_linear_2075_733" x1="115.016" y1="69.3982" x2="420.516" y2="102.898" gradientUnits="userSpaceOnUse">
<stop offset="0.127122" stop-color="white"/>
<stop offset="0.972261" stop-color="white" stop-opacity="0.8"/>
</linearGradient>
<clipPath id="clip0_2075_733">
<rect width="48" height="48" fill="white" transform="translate(217.623 33.2432)"/>
</clipPath>
</defs>
</svg>
