<svg width="330" height="425" viewBox="0 0 330 425" fill="none" xmlns="http://www.w3.org/2000/svg">
<g filter="url(#filter0_d_2075_734)">
<rect x="103.623" y="133.243" width="88" height="88" rx="10" fill="white"/>
</g>
<g clip-path="url(#clip0_2075_734)">
<path d="M143.623 193.243V181.243H151.623V193.243H161.623V177.243H167.623L147.623 159.243L127.623 177.243H133.623V193.243H143.623Z" fill="#5A98D0"/>
</g>
<g filter="url(#filter1_d_2075_734)">
<path d="M91.0451 10H63.6145C59.8293 10 56.7607 12.2858 56.7607 15.1054V35.5386C56.7607 38.3583 59.8293 40.6441 63.6145 40.6441H91.0451C94.8304 40.6441 97.8989 38.3583 97.8989 35.5386V15.1054C97.8989 12.2858 94.8304 10 91.0451 10Z" fill="#56CCF2"/>
</g>
<g clip-path="url(#clip1_2075_734)">
<path d="M87.6226 24.2504H83.4526L86.6926 21.8203L85.2826 20.7552L80.6226 24.2504H78.6226V22.7503L83.2826 19.2551L81.8626 18.1975L78.6226 20.6277V17.5H76.6226V20.6277L73.3826 18.1975L71.9626 19.2551L76.6226 22.7503V24.2504H74.6226L69.9626 20.7552L68.5526 21.8203L71.7926 24.2504H67.6226V25.7505H71.7926L68.5526 28.1807L69.9626 29.2458L74.6226 25.7505H76.6226V27.2506L71.9626 30.7459L73.3826 31.8034L76.6226 29.3733V32.501H78.6226V29.3733L81.8626 31.8034L83.2826 30.7459L78.6226 27.2506V25.7505H80.6226L85.2826 29.2458L86.6926 28.1807L83.4526 25.7505H87.6226V24.2504Z" fill="white"/>
</g>
<g filter="url(#filter2_d_2075_734)">
<path d="M264.907 87.2549H237.476C233.691 87.2549 230.623 89.5407 230.623 92.3603V112.794C230.623 115.613 233.691 117.899 237.476 117.899H264.907C268.692 117.899 271.761 115.613 271.761 112.794V92.3603C271.761 89.5407 268.692 87.2549 264.907 87.2549Z" fill="#F2C94C"/>
</g>
<path d="M260.623 100.005C260.623 96.2551 256.623 93.2549 251.623 93.2549C246.623 93.2549 242.623 96.2551 242.623 100.005C242.623 102.33 244.223 104.431 246.623 105.631V107.506C246.623 108.481 247.423 109.306 248.623 109.606V109.756C248.623 111.031 249.923 112.006 251.623 112.006C253.323 112.006 254.623 111.031 254.623 109.756V109.606C255.823 109.306 256.623 108.481 256.623 107.506V105.631C259.023 104.431 260.623 102.33 260.623 100.005ZM244.623 100.005C244.623 97.0801 247.723 94.755 251.623 94.755C255.523 94.755 258.623 97.0801 258.623 100.005C258.623 102.63 256.023 104.806 252.623 105.181V103.306L254.323 102.03C254.723 101.73 254.723 101.28 254.323 100.98C253.923 100.68 253.323 100.68 252.923 100.98L251.623 101.955L250.323 100.98C249.923 100.68 249.323 100.68 248.923 100.98C248.523 101.28 248.523 101.73 248.923 102.03L250.623 103.306V105.181C247.223 104.806 244.623 102.63 244.623 100.005ZM251.623 110.506C251.023 110.506 250.623 110.206 250.623 109.756H252.623C252.623 110.206 252.223 110.506 251.623 110.506ZM254.623 107.506C254.623 107.956 254.223 108.256 253.623 108.256H249.623C249.023 108.256 248.623 107.956 248.623 107.506V106.381C249.523 106.606 250.523 106.756 251.623 106.756C252.723 106.756 253.723 106.606 254.623 106.381V107.506Z" fill="white"/>
<g filter="url(#filter3_d_2075_734)">
<path d="M44.9069 87.2549H17.4764C13.6911 87.2549 10.6226 89.5407 10.6226 92.3603V112.794C10.6226 115.613 13.6911 117.899 17.4764 117.899H44.9069C48.6922 117.899 51.7607 115.613 51.7607 112.794V92.3603C51.7607 89.5407 48.6922 87.2549 44.9069 87.2549Z" fill="#F58A8A"/>
</g>
<g clip-path="url(#clip2_2075_734)">
<path d="M37.6226 99.2552H36.6226V97.7551C36.6226 95.685 34.3826 94.0049 31.6226 94.0049C28.8626 94.0049 26.6226 95.685 26.6226 97.7551V99.2552H25.6226C24.5226 99.2552 23.6226 99.9303 23.6226 100.755V108.256C23.6226 109.081 24.5226 109.756 25.6226 109.756H37.6226C38.7226 109.756 39.6226 109.081 39.6226 108.256V100.755C39.6226 99.9303 38.7226 99.2552 37.6226 99.2552ZM31.6226 106.006C30.5226 106.006 29.6226 105.331 29.6226 104.506C29.6226 103.681 30.5226 103.005 31.6226 103.005C32.7226 103.005 33.6226 103.681 33.6226 104.506C33.6226 105.331 32.7226 106.006 31.6226 106.006ZM34.7226 99.2552H28.5226V97.7551C28.5226 96.4725 29.9126 95.43 31.6226 95.43C33.3326 95.43 34.7226 96.4725 34.7226 97.7551V99.2552Z" fill="white"/>
</g>
<g filter="url(#filter4_d_2075_734)">
<path d="M218.907 10H191.476C187.691 10 184.623 12.2858 184.623 15.1054V35.5386C184.623 38.3583 187.691 40.6441 191.476 40.6441H218.907C222.692 40.6441 225.761 38.3583 225.761 35.5386V15.1054C225.761 12.2858 222.692 10 218.907 10Z" fill="#6FCF97"/>
</g>
<path d="M210.934 21.1729H194.602V28.8285H210.934V21.1729Z" fill="white"/>
<path d="M215.335 22.6963L211.731 23.8327V26.201L215.335 27.3374H216.643V22.6963H215.335Z" fill="white"/>
<path d="M151.013 216.243C149.897 220.607 151.41 223.123 152.6 223.743C154.962 224.973 157.6 226.513 157.6 226.513C157.6 226.513 174.029 254.658 178.791 256.672C184.346 259.022 197.045 260.243 197.045 260.243L202.6 249.132C202.6 249.132 189.902 246.354 184.346 245.164C180.603 244.362 164.108 226.513 164.108 226.513L167.283 220.957H161.331C156.966 217.783 154.6 211.243 154.6 211.243C154.6 211.243 151.775 213.263 151.013 216.243Z" fill="url(#paint0_linear_2075_734)"/>
<path d="M216.1 266.743C214.1 264.743 202.6 261.576 197.1 260.243L202.6 249.243C204.767 249.243 211.1 248.743 219.1 246.743C229.1 244.243 232.6 235.243 244.1 244.743C253.3 252.343 269.267 285.576 276.1 301.243C265.354 311.485 258.217 314.812 244.1 317.743C243.267 316.076 240.8 310.443 237.6 301.243C233.6 289.743 221.1 289.743 219.1 285.743C217.1 281.743 218.6 269.243 216.1 266.743Z" fill="url(#paint1_linear_2075_734)"/>
<path d="M252.1 380.243C248.5 372.243 248.433 334.243 247.1 316.743C259.294 314.346 265.734 311.259 276.1 300.743C276.1 300.743 293.1 308.743 292.1 327.243C291.1 345.743 298.621 355.084 303.1 361.243C307.1 366.743 316.6 378.41 321.6 386.243L316.6 395.743C311.1 389.91 295 378.043 286.6 371.243C278.2 364.443 275.433 347.41 274.1 338.243C273.267 347.91 269.1 365.643 271.1 371.243C273.1 376.843 294.6 393.743 303.1 402.243L300.1 410.743C285.6 403.91 255.7 388.243 252.1 380.243Z" fill="url(#paint2_linear_2075_734)"/>
<path d="M210.1 232.743C210.5 231.143 209.933 226.41 210.6 224.743C215.4 225.543 218.1 228.91 219.1 230.243C220.1 230.076 221.534 229.612 222.1 230.743C222.6 231.743 222.1 233.743 220.6 235.243L224.1 244.743C222.441 245.821 221.432 246.182 219.6 246.743C220.6 244.243 220.1 242.243 219.6 241.243C216 244.043 214.6 243.91 213.1 243.743L211.6 237.243L209.1 237.743C209.6 236.91 209.7 234.343 210.1 232.743Z" fill="url(#paint3_linear_2075_734)"/>
<path d="M219.1 230.244C217.1 227.444 212.267 225.41 210.1 224.744C206.1 221.744 208.1 215.244 217.6 212.244C227.1 209.244 231.1 217.244 233.1 219.244C235.1 221.244 236.1 227.744 245.1 231.744C254.1 235.744 253.6 230.744 259.1 230.744C264.6 230.744 267.1 234.244 266.1 237.244C265.1 240.244 264.6 243.744 270.6 247.744C276.6 251.744 271.1 257.244 270.6 263.244C270.1 269.244 262.1 266.244 253.6 266.244C245.1 266.244 246.6 266.244 245.1 260.744C243.6 255.244 241.1 253.244 238.1 251.744C235.1 250.244 228.1 251.244 226.6 249.744C225.4 248.544 222.1 239.577 220.6 235.244C221.267 234.244 222.5 231.944 222.1 230.744C221.7 229.544 219.933 229.91 219.1 230.244Z" fill="#F2994A"/>
<path d="M200.1 290.743L224.1 289.243C226.9 289.643 231.6 293.076 233.6 294.743C232.933 296.243 231 299.243 228.6 299.243C226.2 299.243 208.6 296.243 200.1 294.743H198.1V287.243L200.1 290.743Z" fill="url(#paint4_linear_2075_734)"/>
<path d="M198.1 298.243V281.243H189.6V298.243H198.1Z" fill="#F2C94C"/>
<path d="M316.6 424.743C314.2 424.343 304.433 415.076 300.1 410.743L303.1 402.243C305.1 403.076 309.3 404.543 310.1 405.743C311.1 407.243 319.6 425.243 316.6 424.743Z" fill="#5A98D0"/>
<path d="M328.6 413.743C327.4 411.743 320.1 402.076 316.6 395.743L321.6 386.243C323.933 388.243 324.1 388.243 326.6 391.743C327.763 393.371 330.1 416.243 328.6 413.743Z" fill="#5A98D0"/>
<path opacity="0.2" d="M277.1 323.743L274.1 338.743C274.6 344.243 277.6 357.743 282.6 367.243C276.6 348.243 278.6 334.076 277.1 323.743Z" fill="black"/>
<defs>
<filter id="filter0_d_2075_734" x="53.6226" y="83.2432" width="188" height="188" filterUnits="userSpaceOnUse" color-interpolation-filters="sRGB">
<feFlood flood-opacity="0" result="BackgroundImageFix"/>
<feColorMatrix in="SourceAlpha" type="matrix" values="0 0 0 0 0 0 0 0 0 0 0 0 0 0 0 0 0 0 127 0" result="hardAlpha"/>
<feOffset/>
<feGaussianBlur stdDeviation="25"/>
<feColorMatrix type="matrix" values="0 0 0 0 0.0627451 0 0 0 0 0.439216 0 0 0 0 0.694118 0 0 0 0.25 0"/>
<feBlend mode="normal" in2="BackgroundImageFix" result="effect1_dropShadow_2075_734"/>
<feBlend mode="normal" in="SourceGraphic" in2="effect1_dropShadow_2075_734" result="shape"/>
</filter>
<filter id="filter1_d_2075_734" x="46.7607" y="0" width="71.1382" height="60.6445" filterUnits="userSpaceOnUse" color-interpolation-filters="sRGB">
<feFlood flood-opacity="0" result="BackgroundImageFix"/>
<feColorMatrix in="SourceAlpha" type="matrix" values="0 0 0 0 0 0 0 0 0 0 0 0 0 0 0 0 0 0 127 0" result="hardAlpha"/>
<feOffset dx="5" dy="5"/>
<feGaussianBlur stdDeviation="7.5"/>
<feColorMatrix type="matrix" values="0 0 0 0 0 0 0 0 0 0 0 0 0 0 0 0 0 0 0.15 0"/>
<feBlend mode="normal" in2="BackgroundImageFix" result="effect1_dropShadow_2075_734"/>
<feBlend mode="normal" in="SourceGraphic" in2="effect1_dropShadow_2075_734" result="shape"/>
</filter>
<filter id="filter2_d_2075_734" x="220.623" y="77.2549" width="71.1382" height="60.6445" filterUnits="userSpaceOnUse" color-interpolation-filters="sRGB">
<feFlood flood-opacity="0" result="BackgroundImageFix"/>
<feColorMatrix in="SourceAlpha" type="matrix" values="0 0 0 0 0 0 0 0 0 0 0 0 0 0 0 0 0 0 127 0" result="hardAlpha"/>
<feOffset dx="5" dy="5"/>
<feGaussianBlur stdDeviation="7.5"/>
<feColorMatrix type="matrix" values="0 0 0 0 0 0 0 0 0 0 0 0 0 0 0 0 0 0 0.15 0"/>
<feBlend mode="normal" in2="BackgroundImageFix" result="effect1_dropShadow_2075_734"/>
<feBlend mode="normal" in="SourceGraphic" in2="effect1_dropShadow_2075_734" result="shape"/>
</filter>
<filter id="filter3_d_2075_734" x="0.622559" y="77.2549" width="71.1382" height="60.6445" filterUnits="userSpaceOnUse" color-interpolation-filters="sRGB">
<feFlood flood-opacity="0" result="BackgroundImageFix"/>
<feColorMatrix in="SourceAlpha" type="matrix" values="0 0 0 0 0 0 0 0 0 0 0 0 0 0 0 0 0 0 127 0" result="hardAlpha"/>
<feOffset dx="5" dy="5"/>
<feGaussianBlur stdDeviation="7.5"/>
<feColorMatrix type="matrix" values="0 0 0 0 0 0 0 0 0 0 0 0 0 0 0 0 0 0 0.15 0"/>
<feBlend mode="normal" in2="BackgroundImageFix" result="effect1_dropShadow_2075_734"/>
<feBlend mode="normal" in="SourceGraphic" in2="effect1_dropShadow_2075_734" result="shape"/>
</filter>
<filter id="filter4_d_2075_734" x="174.623" y="0" width="71.1382" height="60.6445" filterUnits="userSpaceOnUse" color-interpolation-filters="sRGB">
<feFlood flood-opacity="0" result="BackgroundImageFix"/>
<feColorMatrix in="SourceAlpha" type="matrix" values="0 0 0 0 0 0 0 0 0 0 0 0 0 0 0 0 0 0 127 0" result="hardAlpha"/>
<feOffset dx="5" dy="5"/>
<feGaussianBlur stdDeviation="7.5"/>
<feColorMatrix type="matrix" values="0 0 0 0 0 0 0 0 0 0 0 0 0 0 0 0 0 0 0.15 0"/>
<feBlend mode="normal" in2="BackgroundImageFix" result="effect1_dropShadow_2075_734"/>
<feBlend mode="normal" in="SourceGraphic" in2="effect1_dropShadow_2075_734" result="shape"/>
</filter>
<linearGradient id="paint0_linear_2075_734" x1="210.358" y1="223.819" x2="158.587" y2="257.638" gradientUnits="userSpaceOnUse">
<stop stop-color="#FFF8E1"/>
<stop offset="1" stop-color="#FFCC80"/>
</linearGradient>
<linearGradient id="paint1_linear_2075_734" x1="236.6" y1="240.483" x2="236.6" y2="317.743" gradientUnits="userSpaceOnUse">
<stop stop-color="#AF6CED"/>
<stop offset="1" stop-color="#5E199D"/>
</linearGradient>
<linearGradient id="paint2_linear_2075_734" x1="284.35" y1="300.743" x2="284.35" y2="410.743" gradientUnits="userSpaceOnUse">
<stop stop-color="#EB5757"/>
<stop offset="1" stop-color="#872727"/>
</linearGradient>
<linearGradient id="paint3_linear_2075_734" x1="226.339" y1="230.389" x2="208.218" y2="237.998" gradientUnits="userSpaceOnUse">
<stop stop-color="#FFF8E1"/>
<stop offset="1" stop-color="#FFCC80"/>
</linearGradient>
<linearGradient id="paint4_linear_2075_734" x1="238.899" y1="290.323" x2="227.218" y2="311.602" gradientUnits="userSpaceOnUse">
<stop stop-color="#FFF8E1"/>
<stop offset="1" stop-color="#FFCC80"/>
</linearGradient>
<clipPath id="clip0_2075_734">
<rect width="48" height="48" fill="white" transform="translate(123.623 153.243)"/>
</clipPath>
<clipPath id="clip1_2075_734">
<rect width="24" height="18.0012" fill="white" transform="translate(65.6226 16)"/>
</clipPath>
<clipPath id="clip2_2075_734">
<rect width="24" height="18.0012" fill="white" transform="translate(19.6226 93.2549)"/>
</clipPath>
</defs>
</svg>
